<svg fill="none" height="210" viewBox="0 0 411 210" width="411" xmlns="http://www.w3.org/2000/svg"><path d="m135.12 147.543c-3.077 2.242-6.367 4.529-9.87 6.861-7.097 4.722-14.287 9.233-22.174 12.527-10.2818 4.293-20.8458 6.742-31.9533 6.742-14.6827 0-30.0884-3.83-42.6371-11.591-10.9026-6.74-18.67581-15.922-22.67267-28.275-2.2828-7.04-3.743-15.004-4.60948-22.351-.56514-4.777-.606079-9.63-.280455-14.4241.589705-8.7073 2.983345-17.6403 6.787635-25.5035 1.47533-3.0482 3.10247-5.97 4.88357-8.8515 3.9008-6.3125 8.5712-12.487 13.7087-17.843 5.5512-5.7888 12.1099-10.8906 19.4626-14.2009 5.5711-2.5091 11.635-4.3198 17.5949-5.6204 9.6162-2.0991 19.3135-3.3181 29.1444-3.733 8.4972-.3586 17.0402-.2101 25.4842.8901 6.665.8682 13.268 2.1915 19.85 3.5302 5.702 1.1595 11.287 2.2359 16.756 3.2293 6.133 1.1142 12.205 2.1734 18.409 2.7565 7.726.7282 15.548 1.045 23.305.9037 6.057-.1094 12.013-.548 18.01-1.4028 3.402-.4843 7.206-1.2489 11.41-2.2938 4.205-1.0449 8.843-2.4901 13.917-4.3357 5.072-1.8462 10.731-4.11 16.975-6.7914 6.244-2.682 11.118-4.7918 14.624-6.3295 3.505-1.53826 7.391-3.1305 11.657-4.77667 11.44-4.41449 23.674-6.875593 35.977-6.293135 7.601.359924 15.668 1.432615 22.961 3.675705 4.801 1.47789 9.434 3.50783 13.834 5.92399 2.513 1.37951 5.988 3.59061 10.424 6.63321s7.853 5.6716 10.252 7.8869c5.433 5.0168 10.291 10.5172 14.735 16.431 1.901 2.5317 4.085 5.8747 6.551 10.0289 5.731 9.6514 9.569 20.4221 11.381 31.5112 1.369 8.3871 1.329 16.8968.552 25.3417-.289 3.152-.918 7.671-1.887 13.559s-1.827 10.28-2.574 13.177c-1.915 7.439-4.211 14.643-7.357 21.653-1.261 2.809-2.961 5.935-5.099 9.375s-4.016 6.142-5.632 8.106c-4.516 5.486-9.603 10.722-14.975 15.373-5.331 4.614-11.041 8.588-17.156 12.097-4.174 2.396-7.403 4.017-9.686 4.863-6.688 2.475-13.639 3.467-20.741 2.992-3.453-.23-6.828-.78-10.125-1.649-3.297-.87-6.471-1.955-9.521-3.256-6.543-2.792-12.97-6.258-19.006-10.023-9.387-5.856-17.795-12.818-25.976-20.216-6.324-5.72-12.51-11.585-18.821-17.319-3.586-3.258-8.273-7.225-14.061-11.901-5.789-4.675-9.589-7.62-11.4-8.834-1.812-1.214-4.088-2.603-6.829-4.168-6.095-3.481-12.749-6.167-19.85-6.521-5.746-.285-11.777.768-17.247 2.45-3.267 1.004-6.237 2.107-8.91 3.309-6.087 2.738-11.833 6.069-17.425 9.704-3.703 2.408-7.094 4.732-10.171 6.973z" fill="#51197d" fill-opacity=".5"/></svg>