<svg fill="none" height="399" viewBox="0 0 239 399" width="239" xmlns="http://www.w3.org/2000/svg"><path d="m104.333 4.63896c-16.0863 3.45383-31.7981 8.52184-46.6729 15.48364-9.9757 4.6706-19.5395 10.1485-28.2279 16.881-5.3829 4.1713-10.4702 8.7158-14.8853 13.8723-1.2148 1.4193-2.3457 2.8197-3.3926 4.2011-4.06608 5.3631-7.48528 11.5884-9.41254 18.0112-2.85183 9.5126-2.106129 19.3045 1.53907 28.4888 5.18483 13.06 14.55157 24.427 22.63657 35.827 5.8541 8.253 11.4337 16.79 15.6895 25.961 3.6171 7.793 5.9753 15.985 6.9045 24.498.8854 8.111.4685 15.784-.8496 23.84-2.1382 13.07-6.5635 25.652-11.3936 37.967-4.1374 10.552-8.5303 21.017-12.3334 31.692-3.379 9.485-6.153 19.144-7.8078 29.067-1.6608 9.949-1.9274 20.051-.1297 30.011 1.5635 8.656 4.7128 17.227 9.6577 24.599 5.7251 8.536 14.0103 15.619 22.8989 20.815 8.5227 4.981 17.7739 8.516 27.5117 10.479 7.4321 1.496 15.0971 1.986 22.6701 1.91 4.9063-.05 9.6803-.393 14.3223-1.03 4.642-.636 9.086-1.512 13.332-2.625 4.245-1.114 7.959-2.283 11.141-3.507 9.936-3.822 19.094-9.14 27.227-15.895 7.016-5.828 13.171-12.609 18.232-20.132 5.1-7.582 8.927-15.559 12.197-24.052 3.208-8.333 5.736-16.821 7.735-25.502 3.613-15.681 5.91-31.743 6.93-47.786 1.472-23.225.65-46.531 1.272-69.782.397-14.892 1.285-29.747 3.54-44.493 2.431-15.894 6.552-31.52 11.41-46.8548 1.216-3.837 2.598-8.1725 4.145-13.0063 2.039-6.3722 4.149-12.8029 5.673-19.3182 1.722-7.3418 2.844-15.274 1.89-22.7907-.831-6.5404-2.926-12.1127-7.172-17.3863-1.493-1.8559-3.299-3.6639-5.417-5.424-6.512-5.4128-13.681-8.2589-21.767-10.91819-14.243-4.68478-28.89-6.755735-43.877-7.478603-18.542-.894224-37.08.48601-55.216 4.377053z" fill="#51197d" fill-opacity=".5"/></svg>