<svg fill="none" height="438" viewBox="0 0 259 438" width="259" xmlns="http://www.w3.org/2000/svg"><path d="m70.6337 8.42945c-2.9067 1.42314-4.7033 2.28895-5.3899 2.59735-.6862.3083-1.2348.5627-1.6459.763-.4107.2003-1.1405.5817-2.1894 1.1442-1.049.5625-2.628 1.5006-4.737 2.8146-2.1091 1.3133-4.0332 2.5854-5.7725 3.8161-1.7393 1.2308-4.0567 3.0902-6.9522 5.5783-2.8955 2.4875-5.1372 4.5286-6.725 6.1232-1.5878 1.594-3.3889 3.5556-5.4031 5.8846-2.0143 2.3286-4.2453 5.2911-6.693 8.8877-2.4482 3.5972-4.3807 6.7264-5.7975 9.3877-1.4174 2.6612-2.497 4.8333-3.2389 6.5161-.7419 1.6823-1.5746 3.853-2.4981 6.512-.9231 2.6584-1.6884 5.3205-2.296 7.9862-.6072 2.6652-1.0452 5.191-1.31422 7.5772-.26944 2.3862-.3986 4.6562-.38745 6.8098.01116 2.1543.12891 4.2016.35329 6.1419.22388 1.9409.67848 4.2326 1.36368 6.8756.6847 2.644 1.491 5.147 2.4187 7.511.9272 2.363 2.5273 5.59 4.8004 9.681 2.2725 4.09 4.422 7.645 6.4484 10.662 2.0259 3.019 4.0004 5.913 5.9236 8.684 1.9228 2.771 3.7136 5.425 5.3725 7.963 1.6589 2.537 3.3559 5.351 5.091 8.442s3.1108 5.708 4.1273 7.852c1.0169 2.145 2.1039 4.801 3.2611 7.968 1.1567 3.167 2.0078 5.797 2.5531 7.889.5459 2.093 1.0465 4.445 1.5017 7.055.4553 2.612.7972 5.531 1.0257 8.757.2286 3.225.2606 6.585.0962 10.078-.164 3.494-.367 6.169-.6091 8.027-.2425 1.858-.513 3.623-.8117 5.294s-.7591 3.83-1.3811 6.477c-.6221 2.647-1.1983 4.889-1.7289 6.727-.5309 1.837-1.5534 4.917-3.0673 9.24-1.5136 4.323-3.9963 10.47-7.4484 18.441-3.452 7.972-6.9008 15.683-10.3464 23.135-3.446 7.451-6.0268 13.112-7.7424 16.984-1.7156 3.871-3.5586 8.235-5.5292 13.091-1.9707 4.857-4.2235 11.254-6.75854 19.191-2.53504 7.938-4.2896 14.162-5.26375 18.672-.97417 4.511-1.6408 8.012-1.9999 10.505-.359096 2.493-.627163 4.688-.804134 6.586-.17746 1.897-.310791 4.169-.3999637 6.815-.0887452 2.647-.0276492 5.716.1832577 9.206.211365 3.492.561859 6.651 1.05148 9.48.48963 2.827 1.12122 5.533 1.89469 8.116.77346 2.584 1.61636 4.916 2.52874 6.996.91237 2.081 1.68236 3.682 2.30997 4.802s1.2673 2.174 1.91905 3.162c.6513.987 1.5555 2.201 2.7127 3.643 1.1568 1.442 2.6322 2.985 4.4262 4.631 1.7941 1.645 3.9803 3.254 6.5585 4.827 2.5787 1.573 5.6805 2.957 9.3054 4.151 3.6244 1.195 6.529 1.959 8.7137 2.29 2.1848.332 4.727.543 7.6267.631 2.8998.089 5.7609.013 8.5835-.228 2.8226-.24 7.1185-.973 12.8877-2.198 5.7687-1.226 11.7033-2.914 17.8038-5.065 6.1004-2.15 10.8161-3.956 14.1472-5.415 3.33-1.459 6.152-2.743 8.463-3.852 2.312-1.108 5.887-2.952 10.724-5.534 4.838-2.581 10.678-5.989 17.521-10.224 6.842-4.234 11.997-7.547 15.464-9.938 3.468-2.39 6.04-4.193 7.715-5.409 1.675-1.215 3.56-2.612 5.655-4.191s5.421-4.204 9.981-7.873c4.559-3.67 8.051-6.561 10.478-8.671 2.426-2.111 4.247-3.72 5.461-4.827 1.215-1.107 3.503-3.281 6.863-6.521 3.361-3.24 6.68-6.617 9.957-10.132 3.276-3.515 5.698-6.196 7.265-8.045s2.997-3.583 4.29-5.204c1.293-1.62 2.649-3.373 4.067-5.259 1.419-1.886 3.235-4.465 5.451-7.737 2.215-3.271 4.553-7.058 7.015-11.362 2.461-4.302 4.509-8.195 6.143-11.678 1.634-3.482 3.162-7.127 4.586-10.935 1.423-3.808 2.58-7.247 3.47-10.317.89-3.071 1.756-6.668 2.598-10.791.841-4.123 1.432-7.468 1.773-10.033.341-2.567.661-6.648.96-12.245.298-5.597.411-9.889.337-12.875-.074-2.987-.213-5.807-.416-8.462-.204-2.654-.627-6.28-1.27-10.877s-1.35-8.681-2.121-12.252-1.428-6.376-1.971-8.416-2.008-6.412-4.395-13.116c-2.388-6.704-4.342-11.731-5.862-15.082-1.519-3.35-3.185-6.722-4.998-10.114s-4.266-7.525-7.359-12.397c-3.093-4.871-6.71-9.966-10.85-15.284-4.14-5.317-7.778-9.702-10.912-13.154-3.134-3.453-6.167-6.632-9.097-9.537-2.93-2.9048-5.17-5.0762-6.719-6.5141-1.548-1.4378-2.854-2.6471-3.917-3.6277-1.062-.9807-4.576-4.0507-10.539-9.2103-5.964-5.1589-10.488-9.1205-13.573-11.8847-3.084-2.7643-5.792-5.2778-8.125-7.5407-2.332-2.2629-4.128-4.0552-5.386-5.3771-1.258-1.3218-2.682-2.919-4.272-4.7914-1.591-1.8719-2.84-3.3935-3.748-4.5648-.907-1.1708-2.162-2.919-3.763-5.2447-1.602-2.3257-3.044-4.53-4.329-6.6129-1.284-2.0835-2.493-4.1308-3.627-6.1419-1.133-2.011-2.152-3.8541-3.056-5.529-.904-1.6755-1.759-3.2455-2.565-4.7099-.806-1.4645-1.771-3.1174-2.895-4.9587-1.125-1.8407-2.122-3.3581-2.994-4.5521-.872-1.19335-1.523-2.04101-1.952-2.54293-.431-.50135-.813-.92829-1.149-1.28083-.336-.35196-.878-.8502-1.626-1.49472-.747-.64451-1.957-1.44492-3.627-2.40123-1.671-.95687-3.42-1.69956-5.246-2.22807-1.826-.528519-3.279-.851909-4.358-.9701743-1.078-.118265-2.886-.1038335-5.4224.0432903-2.5369.147124-5.1398.533606-7.8086 1.159444-2.6693.62528-5.599 1.58356-8.789 2.87486-3.1905 1.29129-4.8545 1.97061-4.992 2.03795-.1371.06677-1.6592.81172-4.5663 2.23486z" fill="#51197d" fill-opacity=".5"/></svg>