<svg fill="none" height="258" viewBox="0 0 394 258" width="394" xmlns="http://www.w3.org/2000/svg"><path d="m1.08303 169.407c-1.425-11.098-1.507051-23.453.13251-34.54 3.2805-22.156 13.41136-42.4377 28.34236-59.0211 14.3172-15.9077 32.2577-28.0945 51.1058-38.0097 16.0603-8.4479 32.6963-15.3048 50.0263-20.744 20.06-6.2934 40.794-10.81892 61.647-13.49849 18.069-2.32169 36.329-3.479096 54.54-3.58590829 17.235-.09927441 34.495.72790329 51.546 3.30603829 7.232 1.09443 14.268 2.52475 21.32 4.47156 17.306 4.7783 34.085 12.9533 46.952 25.6786 9.634 9.528 17.296 22.8512 21.158 34.3898 4.571 13.6605 5.64 31.3456 5.019 45.6402-.622 14.295-7.539 34.751-18.022 50.342-9.835 14.627-29.684 23.158-47.001 25.89-11.497 1.817-23.193 1.947-34.758 3.178-6.505.695-13.005 1.408-19.47 2.416-5.806.905-11.552 2.112-17.282 3.407-20.018 4.526-39.156 11.678-57.66 20.51-5.615 2.68-11.188 5.446-16.749 8.235-6.883 3.455-13.739 6.963-20.645 10.371-8.222 4.056-16.568 7.886-25.117 11.205-6.57 2.55-13.192 4.489-20.06 6.079-10.021 2.318-19.6871 3.2-29.9823 2.079-9.4358-1.028-18.2758-3.621-26.9667-7.496-11.7612-5.243-22.0844-12.311-31.0366-21.543-15.6036-16.096-24.19968-36.64-27.03937-58.76z" fill="#51197d" fill-opacity=".5"/></svg>