<svg fill="none" height="394" viewBox="0 0 259 394" width="259" xmlns="http://www.w3.org/2000/svg"><path d="m88.6214 1.5718c11.0985-1.424997 23.4536-1.5070467 34.5406.13251 22.156 3.28051 42.437 13.41129 59.021 28.34239 15.908 14.3172 28.094 32.2576 38.01 51.1058 8.447 16.0603 15.304 32.6965 20.744 50.0265 6.293 20.059 10.818 40.794 13.498 61.647 2.322 18.068 3.479 36.329 3.586 54.54.099 17.235-.728 34.495-3.306 51.546-1.095 7.232-2.525 14.268-4.472 21.319-4.778 17.307-12.953 34.086-25.678 46.953-9.528 9.634-22.851 17.296-34.39 21.158-13.661 4.571-31.346 5.64-45.64 5.019-14.295-.622-34.752-7.539-50.3427-18.023-14.6261-9.834-23.1571-29.683-25.8895-47-1.8174-11.497-1.9469-23.193-3.178-34.759-.6952-6.505-1.4082-13.004-2.4158-19.469-.9049-5.806-2.1123-11.552-3.4073-17.282-4.5261-20.018-11.6783-39.156-20.5101-57.66-2.6799-5.615-5.4454-11.189-8.2352-16.75-3.4546-6.882-6.9624-13.738-10.3702-20.644-4.0566-8.223-7.8867-16.568-11.20513-25.117-2.55011-6.57-4.48941-13.192-6.07901-20.06-2.318022-10.021-3.200361-19.6873-2.078812-29.9825 1.027932-9.4358 3.620412-18.2758 7.495892-26.9667 5.24286-11.7612 12.31096-22.0844 21.54306-31.0366 16.0952-15.6036 36.6397-24.1997 58.7592-27.0394z" fill="#51197d" fill-opacity=".5"/></svg>