<svg fill="none" height="300" viewBox="0 0 288 300" width="288" xmlns="http://www.w3.org/2000/svg"><path d="m231.565 26.8971c26.834 19.3042 47.344 47.8334 53.497 78.0709 6.153 30.409-2.222 62.696-14.015 92.079-11.793 29.555-27.347 56.205-50.079 75.167-22.732 18.792-52.985 29.896-80.844 26.821-27.86-3.075-53.4977-20.5-77.5972-38.95-24.2704-18.279-47.1734-37.925-56.74481-62.696-9.74232-24.942-6.323959-55.35 3.93113-82.513 10.25508-27.1621 27.17598-51.0788 49.73718-71.9205 22.3902-20.8418 50.4207-38.60847 81.1857-42.195979 30.595-3.758341 63.924 6.662509 90.929 26.137579z" fill="#8a3ffc" fill-opacity=".5"/></svg>