<svg fill="none" height="259" viewBox="0 0 438 259" width="438" xmlns="http://www.w3.org/2000/svg"><path d="m8.42946 188.317c1.42314 2.907 2.28894 4.703 2.59734 5.39.3084.686.5627 1.235.763 1.646s.5817 1.14 1.1442 2.189 1.5007 2.628 2.8146 4.737c1.3133 2.109 2.5854 4.033 3.8162 5.773 1.2307 1.739 3.0901 4.056 5.5782 6.952 2.4875 2.895 4.5286 5.137 6.1232 6.725 1.594 1.588 3.5556 3.389 5.8847 5.403 2.3285 2.014 5.291 4.245 8.8876 6.693 3.5972 2.448 6.7264 4.381 9.3877 5.798 2.6612 1.417 4.8333 2.497 6.5161 3.238 1.6823.742 3.853 1.575 6.512 2.499 2.6584.923 5.3205 1.688 7.9862 2.296 2.6653.607 5.191 1.045 7.5772 1.314s4.6562.398 6.8099.387c2.1542-.011 4.2015-.129 6.1418-.353 1.9409-.224 4.2326-.679 6.8756-1.364 2.644-.684 5.147-1.491 7.511-2.418 2.363-.928 5.59-2.528 9.681-4.801 4.09-2.272 7.645-4.422 10.662-6.448 3.019-2.026 5.913-4.001 8.684-5.924s5.425-3.713 7.963-5.372c2.537-1.659 5.351-3.356 8.442-5.091s5.708-3.111 7.852-4.128c2.145-1.017 4.801-2.104 7.968-3.261 3.167-1.156 5.797-2.008 7.889-2.553 2.093-.546 4.445-1.046 7.055-1.502 2.612-.455 5.531-.797 8.757-1.025 3.226-.229 6.585-.261 10.078-.096 3.494.164 6.169.367 8.027.609s3.623.513 5.294.811c1.671.299 3.83.759 6.477 1.381s4.889 1.199 6.727 1.729c1.837.531 4.917 1.554 9.24 3.068 4.323 1.513 10.47 3.996 18.441 7.448 7.972 3.452 15.683 6.901 23.135 10.346 7.451 3.446 13.112 6.027 16.984 7.743 3.871 1.715 8.235 3.558 13.091 5.529 4.857 1.971 11.254 4.224 19.191 6.759 7.938 2.535 14.162 4.289 18.672 5.263 4.511.974 8.012 1.641 10.505 2s4.688.627 6.586.804c1.897.178 4.169.311 6.815.4 2.647.089 5.716.028 9.206-.183 3.492-.211 6.651-.562 9.48-1.051 2.827-.49 5.533-1.122 8.116-1.895 2.584-.774 4.916-1.616 6.996-2.529 2.081-.912 3.682-1.682 4.802-2.31 1.12-.627 2.174-1.267 3.162-1.919.987-.651 2.201-1.555 3.643-2.713 1.442-1.156 2.985-2.632 4.631-4.426 1.645-1.794 3.254-3.98 4.827-6.558 1.573-2.579 2.957-5.681 4.151-9.306 1.195-3.624 1.959-6.529 2.29-8.713.332-2.185.543-4.727.631-7.627.089-2.9.013-5.761-.228-8.584-.24-2.822-.973-7.118-2.198-12.887-1.226-5.769-2.914-11.704-5.065-17.804-2.15-6.1-3.956-10.816-5.415-14.147s-2.743-6.152-3.852-8.464c-1.108-2.311-2.952-5.886-5.534-10.724-2.581-4.837-5.989-10.677-10.224-17.52-4.234-6.842-7.547-11.997-9.938-15.464-2.39-3.468-4.193-6.0399-5.409-7.7155-1.215-1.6752-2.612-3.5601-4.191-5.6548-1.579-2.0946-4.204-5.4215-7.873-9.9805-3.67-4.5591-6.561-8.0518-8.671-10.4781-2.111-2.4264-3.72-4.2469-4.827-5.4617s-3.281-3.5025-6.521-6.863c-3.24-3.3606-6.617-6.6793-10.132-9.9562s-6.196-5.6988-8.045-7.2657c-1.849-1.567-3.583-2.9968-5.204-4.2897-1.62-1.2928-3.373-2.6486-5.259-4.0673-1.886-1.4183-4.465-3.2351-7.737-5.4506-3.271-2.2149-7.058-4.5532-11.362-7.0149-4.302-2.4616-8.195-4.5093-11.678-6.1431-3.482-1.6338-7.127-3.1624-10.935-4.58581-3.808-1.42337-7.247-2.58013-10.317-3.4702-3.071-.89007-6.668-1.75597-10.791-2.59773s-7.468-1.43292-10.033-1.77344c-2.567-.340975-6.648-.660783-12.245-.959487-5.597-.2987045-9.889-.4111312-12.875-.3372681-2.987.0738631-5.807.2125201-8.462.4159921-2.654.203472-6.28.626693-10.877 1.269623-4.597.6434-8.681 1.35044-12.252 2.12113-3.571.77115-6.376 1.42802-8.416 1.97061-2.04.54306-6.412 2.00823-13.116 4.39558-6.704 2.3877-11.731 4.3416-15.082 5.8616-3.35 1.5195-6.722 3.1857-10.114 4.9983-3.392 1.8127-7.525 4.2657-12.397 7.3591-4.871 3.093-9.966 6.7097-15.284 10.8502-5.317 4.1401-9.702 7.7773-13.154 10.9116-3.453 3.1343-6.632 6.1666-9.537 9.097-2.9048 2.9303-5.0762 5.1699-6.5141 6.7187-1.4378 1.5484-2.6471 2.854-3.6277 3.9169-.9807 1.0628-4.0507 4.576-9.2103 10.5394-5.1589 5.9638-9.1205 10.4881-11.8847 13.5727-2.7643 3.0841-5.2778 5.7924-7.5407 8.1246-2.2629 2.333-4.0552 4.128-5.3771 5.387-1.3218 1.258-2.919 2.682-4.7914 4.272-1.8719 1.591-3.3935 2.84-4.5648 3.747-1.1708.908-2.919 2.163-5.2447 3.764s-4.53 3.044-6.6129 4.329c-2.0835 1.284-4.1308 2.493-6.1419 3.627-2.011 1.133-3.8541 2.152-5.529 3.056-1.6755.904-3.2455 1.759-4.7099 2.565-1.4645.806-3.1174 1.771-4.9587 2.895-1.8407 1.124-3.3581 2.122-4.552 2.994-1.19345.872-2.0411 1.522-2.54302 1.952-.50136.43-.9283.813-1.28083 1.149-.35197.335-.85021.877-1.49472 1.625-.64452.748-1.44493 1.957-2.40123 3.628-.95687 1.671-1.69956 3.419-2.22808 5.246-.528512 1.826-.851903 3.279-.9701675 4.357-.1182649 1.079-.1038333 2.887.0432905 5.423.147124 2.537.533606 5.14 1.159447 7.809.62528 2.669 1.58356 5.599 2.87486 8.789 1.29129 3.19 1.97061 4.854 2.03794 4.992.06678.137.81173 1.659 2.23487 4.566z" fill="#51197d" fill-opacity=".5"/></svg>