<svg fill="none" height="32" viewBox="0 0 329 32" width="329" xmlns="http://www.w3.org/2000/svg"><path d="m21.0873 31h-10.248c-3.50001 0-6.10401-.7-7.81201-2.1-1.68-1.4-2.520001-3.556-2.520001-6.468v-13.062c0-2.912.840001-5.068 2.520001-6.468 1.708-1.428 4.312-2.142001 7.81201-2.142001h10.248c.532 0 .91.126 1.134.378001.252.224.378.602.378 1.134v5.082c0 .532-.126.924-.378 1.176-.224.224-.602.336-1.134.336h-8.442c-.868 0-1.512.182-1.932.546-.42.336-.63.854-.63 1.554v9.996c0 .7.21 1.218.63 1.554.42.308 1.064.462 1.932.462h8.442c.532 0 .91.126 1.134.378.252.224.378.602.378 1.134v4.998c0 .532-.126.924-.378 1.176-.224.224-.602.336-1.134.336zm-2.31-4.2h-7.014c-2.52001 0-4.20001-.378-5.04001-1.134s-1.26-2.044-1.26-3.864v-11.76c0-1.848.434-3.15 1.302-3.906.868-.784 2.534-1.176 4.99801-1.176h7.014v-.42h-7.014c-2.68801 0-4.48001.42-5.37601 1.26s-1.344 2.254-1.344 4.242v11.76c0 1.932.434 3.318 1.302 4.158.896.84 2.702 1.26 5.41801 1.26h7.014zm13.101.42h.42v-11.13h16.128v11.13h.42v-22.68h-.42v11.13h-16.128v-11.13h-.42zm3.486 3.78h-6.51c-.532 0-.924-.112-1.176-.336-.224-.252-.336-.644-.336-1.176v-27.216c0-.532.112-.91.336-1.134.252-.252001.644-.378001 1.176-.378001h6.51c.532 0 .91.126 1.134.378001.252.224.378.602.378 1.134v9.114h7.014v-9.114c0-.532.112-.91.336-1.134.252-.252001.644-.378001 1.176-.378001h6.51c.532 0 .91.126 1.134.378001.252.224.378.602.378 1.134v27.216c0 .532-.126.924-.378 1.176-.224.224-.602.336-1.134.336h-6.51c-.532 0-.924-.112-1.176-.336-.224-.252-.336-.644-.336-1.176v-9.324h-7.014v9.324c0 .532-.126.924-.378 1.176-.224.224-.602.336-1.134.336zm24.6872 0c-.532 0-.924-.112-1.176-.336-.224-.252-.336-.644-.336-1.176v-4.998c0-.532.112-.91.336-1.134.252-.252.644-.378 1.176-.378h4.158v-14.112h-4.158c-.532 0-.924-.112-1.176-.336-.224-.252-.336-.644-.336-1.176v-5.082c0-.532.112-.91.336-1.134.252-.252001.644-.378001 1.176-.378001h17.892c.532 0 .91.126 1.134.378001.252.224.378.602.378 1.134v5.082c0 .532-.126.924-.378 1.176-.224.224-.602.336-1.134.336h-4.074v14.112h4.074c.532 0 .91.126 1.134.378.252.224.378.602.378 1.134v4.998c0 .532-.126.924-.378 1.176-.224.224-.602.336-1.134.336zm15.624-3.78v-.42h-6.426v-21.84h6.426v-.42h-13.356v.42h6.51v21.84h-6.51v.42zm16.9877 3.78h-6.51c-.532 0-.924-.112-1.176-.336-.224-.252-.336-.644-.336-1.176v-27.216c0-.532.112-.91.336-1.134.252-.252001.644-.378001 1.176-.378001h12.852c3.8078 0 6.4118.756001 7.8118 2.268001s2.1 3.486 2.1 5.922v5.376c0 2.436-.7 4.41-2.1 5.922s-4.004 2.268-7.8118 2.268h-4.83v6.972c0 .532-.126.924-.378 1.176-.224.224-.602.336-1.134.336zm5.754-12.054c1.316 0 2.3798-.14 3.1918-.42.84-.28 1.484-.658 1.932-1.134.448-.504.756-1.092.924-1.764.168-.7.252-1.456.252-2.268v-3.108c0-.812-.084-1.568-.252-2.268s-.476-1.302-.924-1.806-1.092-.896-1.932-1.176c-.812-.308-1.8758-.462-3.1918-.462h-9.072v22.68h.42v-8.274zm-8.652-.42v-13.566h8.652c1.232 0 2.2258.14 2.9818.42.784.252 1.386.616 1.806 1.092s.7 1.036.84 1.68c.168.644.252 1.344.252 2.1v3.108c0 .756-.084 1.456-.252 2.1-.14.616-.42 1.162-.84 1.638-.42.448-1.022.798-1.806 1.05-.756.252-1.7498.378-2.9818.378zm4.326-9.912v6.342h3.78c.812 0 1.344-.21 1.596-.63s.378-.896.378-1.428v-2.226c0-.532-.126-1.008-.378-1.428s-.784-.63-1.596-.63zm33.2068 22.386h-13.272c-.532 0-.924-.112-1.176-.336-.224-.252-.336-.644-.336-1.176v-4.914c0-.532.112-.91.336-1.134.252-.252.644-.378 1.176-.378h11.298c.364 0 .63-.112.798-.336.196-.252.294-.546.294-.882 0-.476-.098-.826-.294-1.05-.168-.224-.434-.35-.798-.378l-6.3-.882c-1.96-.28-3.542-.924-4.746-1.932-1.176-1.008-1.764-2.688-1.764-5.04v-4.41c0-2.38.77-4.2 2.31-5.46 1.54-1.288 3.668-1.932001 6.384-1.932001h11.76c.532 0 .91.126 1.134.378001.252.224.378.602.378 1.134v4.998c0 .532-.126.924-.378 1.176-.224.224-.602.336-1.134.336h-9.786c-.364 0-.644.126-.84.378-.196.224-.294.518-.294.882s.098.672.294.924.476.392.84.42l6.258.84c1.96.28 3.542.924 4.746 1.932s1.806 2.688 1.806 5.04v4.41c0 2.38-.784 4.214-2.352 5.502-1.54 1.26-3.654 1.89-6.342 1.89zm3.402-26.46h-9.324c-1.288 0-2.324.364-3.108 1.092-.784.7-1.176 1.61-1.176 2.73v3.444c0 1.148.224 1.946.672 2.394.476.42 1.078.7 1.806.84l8.862 1.806c.784.168 1.4.504 1.848 1.008.476.476.714 1.372.714 2.688v2.436c0 1.12-.392 2.044-1.176 2.772-.756.7-1.778 1.05-3.066 1.05h-10.458v.42h10.458c1.428 0 2.562-.392 3.402-1.176.84-.812 1.26-1.834 1.26-3.066v-2.436c0-1.456-.28-2.464-.84-3.024-.532-.56-1.218-.924-2.058-1.092l-8.862-1.806c-.644-.112-1.162-.364-1.554-.756s-.588-1.078-.588-2.058v-3.444c0-.98.35-1.792 1.05-2.436s1.638-.966 2.814-.966h9.324zm44.94 18.522c0 1.288-.196 2.464-.588 3.528-.364 1.036-1.036 1.932-2.016 2.688-.952.728-2.282 1.302-3.99 1.722-1.68.42-3.822.63-6.426.63s-4.76-.21-6.468-.63-3.052-.994-4.032-1.722c-.952-.756-1.624-1.652-2.016-2.688-.364-1.064-.546-2.24-.546-3.528v-14.322c0-1.288.182-2.45.546-3.486.392-1.064 1.064-1.974 2.016-2.73.98-.756 2.324-1.344 4.032-1.764001 1.708-.42 3.864-.63 6.468-.63s4.746.21 6.426.63c1.708.420001 3.038 1.008001 3.99 1.764001.98.756 1.652 1.666 2.016 2.73.392 1.036.588 2.198.588 3.486zm-4.578-.966v-12.39c0-1.68-.602-3.038-1.806-4.074-1.204-1.064-3.444-1.596-6.72-1.596s-5.502.532-6.678 1.596c-1.176 1.036-1.764 2.394-1.764 4.074v12.39c0 1.68.588 3.052 1.764 4.116 1.176 1.036 3.402 1.554 6.678 1.554s5.516-.518 6.72-1.554c1.204-1.064 1.806-2.436 1.806-4.116zm-16.548 0v-12.39c0-1.568.56-2.828 1.68-3.78 1.12-.98 3.234-1.47 6.342-1.47s5.236.49 6.384 1.47c1.148.952 1.722 2.212 1.722 3.78v12.39c0 1.568-.574 2.842-1.722 3.822-1.148.952-3.276 1.428-6.384 1.428s-5.222-.476-6.342-1.428c-1.12-.98-1.68-2.254-1.68-3.822zm4.578-.546c0 .56.21 1.036.63 1.428.42.364 1.386.546 2.898.546s2.478-.182 2.898-.546c.42-.392.63-.868.63-1.428v-11.298c0-.532-.21-.98-.63-1.344-.42-.392-1.386-.588-2.898-.588s-2.478.196-2.898.588c-.42.364-.63.812-.63 1.344zm29.917 9.45h-6.51c-.532 0-.924-.112-1.176-.336-.224-.252-.336-.644-.336-1.176v-27.216c0-.532.112-.91.336-1.134.252-.252001.644-.378001 1.176-.378001h18.732c.532 0 .91.126 1.134.378001.252.224.378.602.378 1.134v4.998c0 .532-.126.924-.378 1.176-.224.224-.602.336-1.134.336h-10.71v4.368h7.308c.532 0 .91.126 1.134.378.252.224.378.602.378 1.134v5.04c0 .532-.126.924-.378 1.176-.224.224-.602.336-1.134.336h-7.308v8.274c0 .532-.126.924-.378 1.176-.224.224-.602.336-1.134.336zm-3.444-3.78h.42v-9.828h9.576v-.42h-9.576v-12.012h12.978v-.42h-13.398zm38.43 3.78h-6.51c-.532 0-.924-.112-1.176-.336-.224-.252-.336-.644-.336-1.176v-27.216c0-.532.112-.91.336-1.134.252-.252001.644-.378001 1.176-.378001h18.732c.532 0 .91.126 1.134.378001.252.224.378.602.378 1.134v4.998c0 .532-.126.924-.378 1.176-.224.224-.602.336-1.134.336h-10.71v4.368h7.308c.532 0 .91.126 1.134.378.252.224.378.602.378 1.134v5.04c0 .532-.126.924-.378 1.176-.224.224-.602.336-1.134.336h-7.308v8.274c0 .532-.126.924-.378 1.176-.224.224-.602.336-1.134.336zm-3.444-3.78h.42v-9.828h9.576v-.42h-9.576v-12.012h12.978v-.42h-13.398zm47.131-4.158c0 1.288-.196 2.464-.588 3.528-.364 1.036-1.036 1.932-2.016 2.688-.952.728-2.268 1.302-3.948 1.722s-3.822.63-6.426.63-4.746-.21-6.426-.63-3.01-.994-3.99-1.722c-.952-.756-1.624-1.652-2.016-2.688-.364-1.064-.546-2.24-.546-3.528v-20.79c0-.532.112-.91.336-1.134.252-.252001.644-.378001 1.176-.378001h6.594c.532 0 .91.126 1.134.378001.252.224.378.602.378 1.134v19.152c0 .56.21 1.036.63 1.428.42.364 1.358.546 2.814.546 1.484 0 2.436-.182 2.856-.546.42-.392.63-.868.63-1.428v-19.152c0-.532.112-.91.336-1.134.252-.252001.644-.378001 1.176-.378001h6.384c.532 0 .91.126 1.134.378001.252.224.378.602.378 1.134zm-21.336-18.522v17.514c0 1.68.574 3.052 1.722 4.116 1.176 1.036 3.402 1.554 6.678 1.554s5.502-.518 6.678-1.554c1.176-1.064 1.764-2.436 1.764-4.116v-17.514h-.42v17.514c0 1.568-.56 2.842-1.68 3.822-1.12.952-3.234 1.428-6.342 1.428s-5.222-.476-6.342-1.428c-1.092-.98-1.638-2.254-1.638-3.822v-17.514zm41.038.42c1.484 0 2.576.406 3.276 1.218.728.812 1.092 1.862 1.092 3.15v2.94c0 1.54-.294 2.73-.882 3.57s-1.75 1.26-3.486 1.26h-9.156v-12.138zm-4.62 3.36v5.376h3.15c.728 0 1.218-.182 1.47-.546.252-.392.378-.868.378-1.428v-1.428c0-.56-.126-1.022-.378-1.386-.252-.392-.742-.588-1.47-.588zm-4.536 18.9v-9.744h11.886c1.596 0 2.772.35 3.528 1.05.756.672 1.134 1.694 1.134 3.066v5.628h.42v-5.628c0-1.456-.42-2.562-1.26-3.318-.84-.784-2.114-1.176-3.822-1.176h-.462c1.008-.308 1.68-.868 2.016-1.68.336-.84.504-1.904.504-3.192v-2.898c0-1.372-.392-2.506-1.176-3.402-.784-.924-1.988-1.386-3.612-1.386h-9.576v22.68zm3.024 3.78h-6.468c-.532 0-.924-.112-1.176-.336-.224-.252-.336-.644-.336-1.176v-27.216c0-.532.112-.91.336-1.134.252-.252001.644-.378001 1.176-.378001h13.986c3.136 0 5.292.658001 6.468 1.974001 1.204 1.288 1.806 2.968 1.806 5.04v1.932c0 1.176-.182 2.184-.546 3.024-.336.812-.938 1.4-1.806 1.764 1.512.168 2.73.784 3.654 1.848.952 1.064 1.428 2.478 1.428 4.242v8.904c0 .532-.126.924-.378 1.176-.224.224-.602.336-1.134.336h-6.51c-.532 0-.924-.112-1.176-.336-.224-.252-.336-.644-.336-1.176v-6.426c0-.616-.126-1.064-.378-1.344-.224-.308-.63-.462-1.218-.462h-5.88v8.232c0 .532-.126.924-.378 1.176-.224.224-.602.336-1.134.336zm37.291 0h-6.804c-.532 0-.924-.112-1.176-.336-.224-.252-.336-.644-.336-1.176v-5.376l-6.426-8.61c-.644-.868-1.078-1.624-1.302-2.268-.196-.644-.294-1.61-.294-2.898v-8.064c0-.532.112-.91.336-1.134.252-.252001.644-.378001 1.176-.378001h6.468c.532 0 .91.126 1.134.378001.252.224.378.602.378 1.134v6.888c0 .28.014.574.042.882s.14.602.336.882l1.932 3.024c.14.252.28.434.42.546.168.112.364.168.588.168h.42c.224 0 .406-.056.546-.168.168-.112.322-.294.462-.546l1.932-3.024c.196-.28.308-.574.336-.882s.042-.602.042-.882v-6.888c0-.532.112-.91.336-1.134.252-.252001.644-.378001 1.176-.378001h6.258c.532 0 .91.126 1.134.378001.252.224.378.602.378 1.134v8.064c0 1.288-.112 2.254-.336 2.898s-.644 1.4-1.26 2.268l-6.384 8.652v5.334c0 .532-.126.924-.378 1.176-.224.224-.602.336-1.134.336zm-2.898-10.962c.644 0 1.204-.14 1.68-.42.504-.28.98-.728 1.428-1.344l4.2-5.67c.336-.448.518-.938.546-1.47.056-.56.084-1.148.084-1.764v-4.83h-.42v4.83c0 .588-.028 1.162-.084 1.722-.056.532-.224.98-.504 1.344l-4.2 5.67c-.42.532-.854.924-1.302 1.176-.42.224-.896.336-1.428.336h-1.134c-.476 0-.952-.112-1.428-.336s-.896-.616-1.26-1.176l-4.074-5.67c-.28-.42-.448-.882-.504-1.386-.056-.532-.084-1.092-.084-1.68v-4.83h-.42v4.83c0 .616.028 1.204.084 1.764s.238 1.05.546 1.47l4.074 5.67c.448.616.91 1.064 1.386 1.344.504.28 1.064.42 1.68.42h.42v7.182h.42v-7.182z" fill="#fff"/></svg>