<svg fill="none" height="1063" viewBox="0 0 1118 1063" width="1118" xmlns="http://www.w3.org/2000/svg" xmlns:xlink="http://www.w3.org/1999/xlink"><filter id="a" color-interpolation-filters="sRGB" filterUnits="userSpaceOnUse" height="703.876" width="620.202" x="497.527" y="0"><feFlood flood-opacity="0" result="BackgroundImageFix"/><feColorMatrix in="SourceAlpha" type="matrix" values="0 0 0 0 0 0 0 0 0 0 0 0 0 0 0 0 0 0 127 0"/><feOffset dx="11" dy="7"/><feGaussianBlur stdDeviation="8.5"/><feColorMatrix type="matrix" values="0 0 0 0 0 0 0 0 0 0 0 0 0 0 0 0 0 0 0.55 0"/><feBlend in2="BackgroundImageFix" mode="normal" result="effect1_dropShadow"/><feBlend in="SourceGraphic" in2="effect1_dropShadow" mode="normal" result="shape"/></filter><filter id="b" color-interpolation-filters="sRGB" filterUnits="userSpaceOnUse" height="703.876" width="620.202" x="0" y="1"><feFlood flood-opacity="0" result="BackgroundImageFix"/><feColorMatrix in="SourceAlpha" type="matrix" values="0 0 0 0 0 0 0 0 0 0 0 0 0 0 0 0 0 0 127 0"/><feOffset dx="11" dy="7"/><feGaussianBlur stdDeviation="8.5"/><feColorMatrix type="matrix" values="0 0 0 0 0 0 0 0 0 0 0 0 0 0 0 0 0 0 0.55 0"/><feBlend in2="BackgroundImageFix" mode="normal" result="effect1_dropShadow"/><feBlend in="SourceGraphic" in2="effect1_dropShadow" mode="normal" result="shape"/></filter><filter id="c" color-interpolation-filters="sRGB" filterUnits="userSpaceOnUse" height="671.721" width="658.577" x="228" y="391"><feFlood flood-opacity="0" result="BackgroundImageFix"/><feColorMatrix in="SourceAlpha" type="matrix" values="0 0 0 0 0 0 0 0 0 0 0 0 0 0 0 0 0 0 127 0"/><feOffset dy="5"/><feGaussianBlur stdDeviation="10"/><feColorMatrix type="matrix" values="0 0 0 0 0 0 0 0 0 0 0 0 0 0 0 0 0 0 1 0"/><feBlend in2="BackgroundImageFix" mode="normal" result="effect1_dropShadow"/><feBlend in="SourceGraphic" in2="effect1_dropShadow" mode="normal" result="shape"/></filter><filter id="d" color-interpolation-filters="sRGB" filterUnits="userSpaceOnUse" height="629.619" width="629.766" x="243.751" y="418.103"><feFlood flood-opacity="0" result="BackgroundImageFix"/><feColorMatrix in="SourceAlpha" type="matrix" values="0 0 0 0 0 0 0 0 0 0 0 0 0 0 0 0 0 0 127 0"/><feOffset dx="2" dy="3"/><feGaussianBlur stdDeviation="3.5"/><feColorMatrix type="matrix" values="0 0 0 0 0 0 0 0 0 0 0 0 0 0 0 0 0 0 0.5 0"/><feBlend in2="BackgroundImageFix" mode="normal" result="effect1_dropShadow"/><feBlend in="SourceGraphic" in2="effect1_dropShadow" mode="normal" result="shape"/></filter><filter id="e" color-interpolation-filters="sRGB" filterUnits="userSpaceOnUse" height="477.067" width="475.308" x="319.835" y="477.955"><feFlood flood-opacity="0" result="BackgroundImageFix"/><feBlend in="SourceGraphic" in2="BackgroundImageFix" mode="normal" result="shape"/><feColorMatrix in="SourceAlpha" result="hardAlpha" type="matrix" values="0 0 0 0 0 0 0 0 0 0 0 0 0 0 0 0 0 0 127 0"/><feOffset dx="3" dy="2"/><feGaussianBlur stdDeviation="3.5"/><feComposite in2="hardAlpha" k2="-1" k3="1" operator="arithmetic"/><feColorMatrix type="matrix" values="0 0 0 0 0 0 0 0 0 0 0 0 0 0 0 0 0 0 0.5 0"/><feBlend in2="shape" mode="normal" result="effect1_innerShadow"/></filter><filter id="f" color-interpolation-filters="sRGB" filterUnits="userSpaceOnUse" height="454.956" width="450.384" x="335.798" y="489.948"><feFlood flood-opacity="0" result="BackgroundImageFix"/><feColorMatrix in="SourceAlpha" type="matrix" values="0 0 0 0 0 0 0 0 0 0 0 0 0 0 0 0 0 0 127 0"/><feOffset dx="5" dy="4"/><feGaussianBlur stdDeviation="2"/><feColorMatrix type="matrix" values="0 0 0 0 0 0 0 0 0 0 0 0 0 0 0 0 0 0 0.25 0"/><feBlend in2="BackgroundImageFix" mode="normal" result="effect1_dropShadow"/><feBlend in="SourceGraphic" in2="effect1_dropShadow" mode="normal" result="shape"/></filter><filter id="g" color-interpolation-filters="sRGB" filterUnits="userSpaceOnUse" height="208.993" width="117.526" x="570.711" y="568.807"><feFlood flood-opacity="0" result="BackgroundImageFix"/><feBlend in="SourceGraphic" in2="BackgroundImageFix" mode="normal" result="shape"/><feColorMatrix in="SourceAlpha" result="hardAlpha" type="matrix" values="0 0 0 0 0 0 0 0 0 0 0 0 0 0 0 0 0 0 127 0"/><feOffset dx="-3"/><feGaussianBlur stdDeviation="4.5"/><feComposite in2="hardAlpha" k2="-1" k3="1" operator="arithmetic"/><feColorMatrix type="matrix" values="0 0 0 0 0 0 0 0 0 0 0 0 0 0 0 0 0 0 0.4 0"/><feBlend in2="shape" mode="normal" result="effect1_innerShadow"/></filter><filter id="h" color-interpolation-filters="sRGB" filterUnits="userSpaceOnUse" height="216.054" width="118.978" x="415.728" y="566.365"><feFlood flood-opacity="0" result="BackgroundImageFix"/><feBlend in="SourceGraphic" in2="BackgroundImageFix" mode="normal" result="shape"/><feColorMatrix in="SourceAlpha" result="hardAlpha" type="matrix" values="0 0 0 0 0 0 0 0 0 0 0 0 0 0 0 0 0 0 127 0"/><feOffset dx="-4" dy="-3"/><feGaussianBlur stdDeviation="5.5"/><feComposite in2="hardAlpha" k2="-1" k3="1" operator="arithmetic"/><feColorMatrix type="matrix" values="0 0 0 0 0 0 0 0 0 0 0 0 0 0 0 0 0 0 0.5 0"/><feBlend in2="shape" mode="normal" result="effect1_innerShadow"/></filter><filter id="i" color-interpolation-filters="sRGB" filterUnits="userSpaceOnUse" height="50.7521" width="110.26" x="417.235" y="553.529"><feFlood flood-opacity="0" result="BackgroundImageFix"/><feColorMatrix in="SourceAlpha" type="matrix" values="0 0 0 0 0 0 0 0 0 0 0 0 0 0 0 0 0 0 127 0"/><feOffset dy="4"/><feGaussianBlur stdDeviation="3.5"/><feColorMatrix type="matrix" values="0 0 0 0 0 0 0 0 0 0 0 0 0 0 0 0 0 0 0.55 0"/><feBlend in2="BackgroundImageFix" mode="normal" result="effect1_dropShadow"/><feBlend in="SourceGraphic" in2="effect1_dropShadow" mode="normal" result="shape"/></filter><filter id="j" color-interpolation-filters="sRGB" filterUnits="userSpaceOnUse" height="54.7047" width="108.612" x="577.107" y="549.637"><feFlood flood-opacity="0" result="BackgroundImageFix"/><feColorMatrix in="SourceAlpha" type="matrix" values="0 0 0 0 0 0 0 0 0 0 0 0 0 0 0 0 0 0 127 0"/><feOffset dy="4"/><feGaussianBlur stdDeviation="3.5"/><feColorMatrix type="matrix" values="0 0 0 0 0 0 0 0 0 0 0 0 0 0 0 0 0 0 0.55 0"/><feBlend in2="BackgroundImageFix" mode="normal" result="effect1_dropShadow"/><feBlend in="SourceGraphic" in2="effect1_dropShadow" mode="normal" result="shape"/></filter><linearGradient id="k"><stop offset="0" stop-color="#f4f4f4"/><stop offset="1" stop-color="#fff"/></linearGradient><linearGradient id="l" gradientUnits="userSpaceOnUse" x1="579.39" x2="570.309" xlink:href="#k" y1="567.438" y2="774.238"/><linearGradient id="m"><stop offset="0" stop-color="#4d4d4d"/><stop offset=".144927" stop-color="#545454"/><stop offset=".584143" stop-color="#272727"/><stop offset="1"/></linearGradient><radialGradient id="n" cx="0" cy="0" gradientTransform="matrix(23.78946721 -60.65089966 43.92725398 17.22985107 602.063 754.085)" gradientUnits="userSpaceOnUse" r="1" xlink:href="#m"/><linearGradient id="o" gradientUnits="userSpaceOnUse" x1="411.2" x2="432.425" xlink:href="#k" y1="576.119" y2="786.827"/><radialGradient id="p" cx="0" cy="0" gradientTransform="matrix(17.94802925 -64.07661413 45.14283879 12.64462865 489.558 760.587)" gradientUnits="userSpaceOnUse" r="1" xlink:href="#m"/><mask id="q" height="637" maskUnits="userSpaceOnUse" width="553" x="520" y="26"><rect fill="#fff" height="560" rx="60" transform="matrix(.93969262 .34202014 -.34202014 .93969262 45.337388 -237.121105)" width="420" x="695.059" y="10"/></mask><mask id="r" height="291" maskUnits="userSpaceOnUse" width="231" x="636" y="220"><path clip-rule="evenodd" d="m723.58 220.943 142.679 51.931-86.6 237.931-142.678-51.931z" fill="#fff" fill-rule="evenodd"/></mask><mask id="s" height="58" maskUnits="userSpaceOnUse" width="53" x="726" y="483"><path clip-rule="evenodd" d="m742.484 483.48 36.058 13.124-15.888 43.652-36.058-13.124z" fill="#fff" fill-rule="evenodd"/></mask><mask id="t" height="637" maskUnits="userSpaceOnUse" width="554" x="22" y="27"><rect fill="#fff" height="560" rx="60" transform="matrix(.93969262 -.34202014 .34202014 .93969262 -52.530887 11.378536)" width="420" x="6" y="154.648"/></mask><mask id="u" height="296" maskUnits="userSpaceOnUse" width="227" x="175" y="295"><path clip-rule="evenodd" d="m175.118 344.776 136.506-49.684 89.543 246.017-136.506 49.684z" fill="#fff" fill-rule="evenodd"/></mask><mask id="v" height="616" maskUnits="userSpaceOnUse" width="617" x="248" y="422"><path clip-rule="evenodd" d="m556.634 1037.72c170.039 0 307.883-137.81 307.883-307.808 0-169.999-137.844-307.809-307.883-307.809s-307.883 137.81-307.883 307.809c0 169.998 137.844 307.808 307.883 307.808z" fill="#fff" fill-rule="evenodd"/></mask><mask id="w" height="616" maskUnits="userSpaceOnUse" width="616" x="248" y="406"><path clip-rule="evenodd" d="m555.844 1021.62c170.017 0 307.844-137.812 307.844-307.811 0-169.998-137.827-307.809-307.844-307.809-170.018 0-307.844 137.811-307.844 307.809 0 169.999 137.826 307.811 307.844 307.811z" fill="#fff" fill-rule="evenodd"/></mask><mask id="x" height="208" maskUnits="userSpaceOnUse" width="114" x="574" y="569"><path clip-rule="evenodd" d="m627.593 776.751c31.016 1.723 57.673-43.195 59.541-100.328s-21.762-104.845-52.778-106.569c-31.016-1.723-57.674 43.195-59.541 100.328-1.868 57.133 21.762 104.845 52.778 106.569z" fill="#fff" fill-rule="evenodd"/></mask><mask id="y" height="212" maskUnits="userSpaceOnUse" width="114" x="420" y="570"><path clip-rule="evenodd" d="m487.638 781.265c30.657-3.112 50.843-52.812 45.088-111.008s-35.274-102.85-65.93-99.738c-30.657 3.112-50.844 52.812-45.088 111.008 5.755 58.196 35.273 102.851 65.93 99.738z" fill="#fff" fill-rule="evenodd"/></mask><g filter="url(#a)"><rect fill="#fff" height="560" rx="60" transform="matrix(.93969262 .34202014 -.34202014 .93969262 45.337388 -237.121105)" width="420" x="695.059" y="10"/><g mask="url(#q)"><rect fill="#d1d1d1" height="560" rx="60" transform="matrix(.93969262 .34202014 -.34202014 .93969262 45.337388 -237.121105)" width="420" x="695.059" y="10"/><rect fill="#fff" height="560" rx="60" transform="matrix(.93969262 .34202014 -.34202014 .93969262 45.823712 -237.963186)" width="414.4" x="697.69" y="10.958"/></g><g clip-rule="evenodd" fill-rule="evenodd"><path d="m801.111 438.637c-.795 2.185-1.671 4.298-2.632 6.367-7.817 16.783-21.009 29.569-36.532 36.859-10.594 4.98-22.242 7.411-34.04 6.832-6.825-.337-13.709-1.689-20.436-4.137-37.498-13.648-56.399-56.349-42.199-95.362 6.945-19.082 20.532-33.754 36.982-42.156 5.508-2.809 11.323-4.913 17.325-6.258 12.747-2.858 26.292-2.236 39.311 2.503 35.428 12.895 54.248 51.678 44.294 88.794-.591 2.192-1.282 4.384-2.073 6.558" fill="#0045a9"/><path d="m936.382 487.871c-14.199 39.014-56.126 59.575-93.64 45.921-6.989-2.544-13.34-6.108-18.937-10.453-8.988-6.98-16.074-16.007-20.862-26.229-7.353-15.647-9.305-34.067-4.466-52.107.589-2.205 1.271-4.388 2.066-6.573.792-2.174 1.676-4.296 2.639-6.352 16.226-34.833 55.572-52.446 90.98-39.558 13.36 4.862 24.356 13.4 32.326 24.156 3.565 4.778 6.521 10.007 8.816 15.538 7.065 16.925 7.968 36.728 1.078 55.657" fill="#360ea0"/><path d="m771.819 496.953c4.561-2.018 9.774-.121 11.972 4.357l16.393 33.389c3.836 7.814-3.75 16.66-11.782 13.737l-50.407-18.347c-8.032-2.924-8.158-14.576-.196-18.096z" fill="#360ea0"/><path d="m926.732 436.417-114.769 56.274c-5.119 2.506-11.176-.038-12.847-5.521-1.238-4.048-2.133-8.225-2.678-12.483-.974-7.611-9.864-10.816-15.502-5.612-3.028 2.792-6.256 5.32-9.65 7.552-4.8 3.165-11.113 1.225-13.429-4.005l-51.726-116.836c-2.139-4.833-.032-10.638 4.715-12.97l143.79-70.721c4.762-2.34 10.371-.292 12.506 4.57l64.331 146.81c2.116 4.831-.003 10.619-4.741 12.942" fill="#360ea0"/></g><g mask="url(#r)"><path clip-rule="evenodd" d="m934.269 426.534c-.14-.712-.354-1.42-.66-2.107l-66.3-147.693c-2.197-4.897-7.91-6.982-12.748-4.658l-145.871 70.129c-.72.35-1.373.78-1.967 1.268-2.292.877-4.55 1.829-6.744 2.921-16.688 8.343-30.426 22.987-37.381 42.095-14.219 39.069 5.254 82.022 43.486 95.937 6.858 2.496 13.866 3.898 20.812 4.275 12.006.65 23.842-1.722 34.591-6.659 3.194-1.463 6.283-3.169 9.252-5.079.07-.043.143-.078.213-.12.341-.222.675-.459 1.011-.683.393-.265.784-.524 1.171-.791.489-.347.975-.702 1.461-1.056.372-.273.741-.54 1.109-.82.494-.377.981-.768 1.468-1.159.343-.277.689-.546 1.027-.825.519-.429 1.02-.877 1.525-1.317.301-.262.598-.512.893-.775.038-.036.073-.066.108-.097 5.711-5.188 14.776-1.926 15.804 5.721.013.098.033.192.048.284.066.499.155 1.002.234 1.5.092.577.177 1.158.282 1.734.097.499.201.994.303 1.494.115.567.229 1.134.361 1.701.109.497.239.989.361 1.485.142.558.281 1.122.432 1.671.135.494.282.986.426 1.471.12.402.227.806.349 1.203.023.07.059.138.081.208 1.066 3.354 2.354 6.629 3.872 9.789 4.93 10.285 12.193 19.379 21.375 26.441 5.72 4.393 12.204 8.001 19.334 10.597 38.243 13.919 80.77-6.468 94.99-45.536 6.899-18.956 5.866-38.834-1.42-55.859-.976-2.289-2.09-4.512-3.288-6.69z" fill="#1c0054" fill-rule="evenodd"/></g><g mask="url(#s)"><path clip-rule="evenodd" d="m783.883 501.655c-2.249-4.961-7.773-6.971-12.69-4.619l-35.659 14.891c-8.573 4.107-7.72 14.475.785 17.57l53.413 19.441c8.511 3.098 15.828-4.296 11.901-12.953z" fill="#1c0054" fill-rule="evenodd"/></g><path clip-rule="evenodd" d="m734.432 186.112 27.177 9.892-2.556-35.556zm-21.082 23.875-13.45 13.571-35.9-13.067 1.705-4.686 106.851-105.8455 15.786 5.7455 13.252 149.56-1.706 4.685-35.524-12.929-1.768-19.11z" fill="#360ea0" fill-rule="evenodd"/></g><g filter="url(#b)"><rect fill="#fff" height="560" rx="60" transform="matrix(.93969262 -.34202014 .34202014 .93969262 -52.530887 11.378536)" width="420" x="6" y="154.648"/><g mask="url(#t)"><rect fill="#d1d1d1" height="560" rx="60" transform="matrix(.93969262 -.34202014 .34202014 .93969262 -52.530887 11.378536)" width="420" x="6" y="154.648"/><rect fill="#fff" height="560" rx="60" transform="matrix(.93969262 -.34202014 .34202014 .93969262 -52.044555 12.220661)" width="414.4" x="8.63113" y="153.69"/></g><path clip-rule="evenodd" d="m150.814 260.75c-3.701 1.979-11.324 4.753-15.967 6.443l18.064 49.632-34.019 12.382-47.3603-130.122 34.0193-12.382 18.538 50.933c5.387-1.961 14.447-4.837 18.215-8.946 4.862-5.138 4.065-13.691 2.101-30.657-1.846-17.22 6.128-34.651 38.915-39.425l8.322 22.863c-8.384 2.42-13.285 6.309-12.42 15.049 1.406 17.169.937 29.762-3.4 40.394 19.488 14.799 38.677 29.918 58.353 44.654l1.825 5.015-38.476 14.005z" fill="#ff002d" fill-rule="evenodd"/><path clip-rule="evenodd" d="m361.56 280.335c-9.456 7.275-16.819 16.867-21.701 27.776-1.328 2.952-2.459 6.003-3.389 9.129-.063.156-.119.33-.171.515-.189.649-.373 1.309-.546 1.965-.125.447-.233.888-.351 1.352-.087.37-.185.756-.266 1.143-.127.537-.245 1.084-.357 1.628-.118.547-.225 1.09-.327 1.631-.086.503-.179 1.002-.256 1.496-.122.65-.224 1.306-.305 1.954-.075.518-.144 1.034-.208 1.549-.052.382-.097.768-.138 1.147-.807 7.621-9.37 10.763-14.89 5.432-.275-.263-.547-.534-.829-.782-.904-.858-1.831-1.681-2.766-2.476-.292-.244-.586-.494-.869-.729-.303-.241-.611-.498-.909-.741-.56-.44-1.13-.889-1.698-1.314-.456-.351-.913-.688-1.376-1.023-.492-.35-.99-.699-1.492-1.045-.492-.35-.991-.685-1.505-1.015-.15-.098-.304-.195-.459-.292-2.724-1.77-5.547-3.35-8.45-4.742-10.385-4.983-21.765-7.511-33.259-7.167-7.167.23-14.388 1.557-21.434 4.122-37.826 13.767-56.583 57.645-41.894 98.004 7.127 19.579 20.819 34.735 37.366 43.558 2.127 1.132 4.286 2.171 6.504 3.091.502.411 1.059.776 1.653 1.076l146.942 75.087c4.533 2.323 9.852.4 11.847-4.286l64.668-151.763c.271-.653.476-1.321.59-1.993 1.093-2.088 2.095-4.245 3.005-6.457 7.136-17.476 7.961-38.068.777-57.805-14.689-40.358-57.262-61.915-95.067-48.154-6.782 2.468-12.963 5.916-18.44 10.129z" fill="#ff002d" fill-rule="evenodd"/><g mask="url(#u)"><path clip-rule="evenodd" d="m379.746 270.298c-6.774 2.465-12.946 5.911-18.416 10.121-9.443 7.269-16.794 16.858-21.666 27.763-1.325 2.951-2.454 6.001-3.382 9.126-.062.157-.119.33-.171.515-.187.649-.371 1.309-.544 1.965-.124.446-.232.888-.35 1.351-.086.37-.184.756-.265 1.143-.127.537-.244 1.083-.356 1.628-.118.546-.225 1.089-.326 1.63-.086.503-.179 1.002-.256 1.496-.121.65-.223 1.306-.304 1.953-.074.518-.142 1.035-.206 1.549-.052.382-.096.768-.138 1.147-.802 7.619-9.355 10.758-14.871 5.425-.275-.263-.547-.534-.828-.782-.904-.858-1.83-1.681-2.764-2.476-.292-.245-.586-.495-.869-.73-.302-.241-.611-.498-.908-.741-.56-.44-1.13-.89-1.696-1.315-.456-.35-.914-.688-1.376-1.023-.492-.351-.989-.699-1.491-1.045-.491-.351-.989-.686-1.503-1.016-.15-.098-.304-.195-.459-.292-2.722-1.77-5.542-3.352-8.443-4.745-10.375-4.986-21.744-7.519-33.225-7.179-7.159.227-14.372 1.551-21.409 4.113-37.779 13.75-56.498 57.614-41.809 97.973 7.127 19.579 20.81 34.738 37.342 43.567 2.126 1.133 4.283 2.172 6.499 3.093.501.411 1.058.776 1.651 1.076l146.811 75.135c4.53 2.324 9.842.403 11.832-4.281l64.537-151.715c.27-.653.475-1.32.588-1.993 1.091-2.087 2.092-4.243 3-6.455 7.121-17.47 7.937-38.059.753-57.796-14.689-40.358-57.224-61.928-94.982-48.185" fill="#a92f44" fill-rule="evenodd"/></g></g><g filter="url(#c)"><g filter="url(#d)"><path clip-rule="evenodd" d="m556.634 1037.72c170.039 0 307.883-137.81 307.883-307.808 0-169.999-137.844-307.809-307.883-307.809s-307.883 137.81-307.883 307.809c0 169.998 137.844 307.808 307.883 307.808z" fill="#693030" fill-rule="evenodd"/></g><g fill="#915c5c" mask="url(#v)"><path d="m506.453 1010.75h98.3666v42.1656h-98.3666z"/><path d="m305.323 867.563h70.5178v146.174h-70.5178z"/><path d="m735.327 834.31h70.5178v196.773h-70.5178z"/></g><path clip-rule="evenodd" d="m555.844 1021.62c170.017 0 307.844-137.812 307.844-307.811 0-169.998-137.827-307.809-307.844-307.809-170.018 0-307.844 137.811-307.844 307.809 0 169.999 137.826 307.811 307.844 307.811z" fill="#e44a4a" fill-rule="evenodd"/><g mask="url(#w)"><path clip-rule="evenodd" d="m521.212 354.032c-8.284 0-15 6.716-15 15v71.138c0 8.284 6.716 15 15 15h68.339c8.284 0 15-6.716 15-15v-71.138c0-8.284-6.716-15-15-15zm264.031 81.041c-5.853-5.852-15.334-5.852-21.186 0l-50.309 50.303c-5.863 5.863-5.864 15.378 0 21.241l48.322 48.316c5.853 5.852 15.333 5.852 21.186 0l50.309-50.303c5.863-5.863 5.863-15.377 0-21.24zm114.4 229.017c8.285 0 15 6.716 15 15v68.328c0 8.284-6.715 15-15 15h-71.148c-8.285 0-15-6.716-15-15v-68.328c0-8.284 6.715-15 15-15zm-66.078 279.028c5.863-5.863 5.863-15.377 0-21.24l-50.309-50.303c-5.853-5.852-15.333-5.852-21.186 0l-48.322 48.316c-5.863 5.863-5.863 15.377 0 21.24l50.309 50.303c5.852 5.852 15.333 5.852 21.186 0zm-229.014 114.362c0 8.28-6.716 15-15 15h-68.339c-8.284 0-15-6.72-15-15v-71.142c0-8.284 6.716-15 15-15h68.339c8.284 0 15 6.716 15 15zm-279.031-66.046c5.852 5.852 15.333 5.852 21.186 0l50.308-50.303c5.864-5.863 5.864-15.377 0-21.24l-48.321-48.316c-5.853-5.852-15.334-5.852-21.186 0l-50.309 50.303c-5.864 5.863-5.864 15.377 0 21.24zm-114.401-229.016c-8.284 0-15-6.716-15-15v-68.328c0-8.284 6.716-15 15-15h71.149c8.284 0 15 6.716 15 15v68.328c0 8.284-6.716 15-15 15zm66.079-279.028c-5.864 5.863-5.864 15.377 0 21.24l50.309 50.303c5.852 5.852 15.333 5.852 21.186 0l48.321-48.316c5.864-5.863 5.864-15.378 0-21.241l-50.308-50.303c-5.853-5.852-15.334-5.851-21.186.001z" fill="#ffdcdc" fill-rule="evenodd"/><g filter="url(#e)"><path clip-rule="evenodd" d="m555.989 953.022c130.424 0 236.154-106.348 236.154-237.534s-105.73-237.533-236.154-237.533-236.154 106.347-236.154 237.533 105.73 237.534 236.154 237.534z" fill="#ffc5c5" fill-rule="evenodd"/></g><g filter="url(#f)"><path clip-rule="evenodd" d="m556.49 936.904c121.885 0 220.692-100.054 220.692-223.478 0-123.423-98.807-223.478-220.692-223.478s-220.692 100.055-220.692 223.478c0 123.424 98.807 223.478 220.692 223.478z" fill="#e44a4a" fill-rule="evenodd"/></g></g><g filter="url(#g)"><path clip-rule="evenodd" d="m627.593 776.751c31.016 1.723 57.673-43.195 59.541-100.328s-21.762-104.845-52.778-106.569c-31.016-1.723-57.674 43.195-59.541 100.328-1.868 57.133 21.762 104.845 52.778 106.569z" fill="url(#l)" fill-rule="evenodd"/></g><path clip-rule="evenodd" d="m627.593 776.751c31.016 1.723 57.673-43.195 59.541-100.328s-21.762-104.845-52.778-106.569c-31.016-1.723-57.674 43.195-59.541 100.328-1.868 57.133 21.762 104.845 52.778 106.569z" fill-rule="evenodd" stroke="#a70000" stroke-width="2"/><g mask="url(#x)"><path clip-rule="evenodd" d="m609.718 778.476c16.296 1.46 30.907-17.726 32.635-42.855 1.727-25.128-10.083-46.683-26.379-48.143-16.297-1.461-30.908 17.726-32.636 42.854-1.727 25.129 10.083 46.683 26.38 48.144z" fill="url(#n)" fill-rule="evenodd"/></g><g filter="url(#h)"><path clip-rule="evenodd" d="m487.638 781.265c30.657-3.112 50.843-52.812 45.088-111.008s-35.274-102.85-65.93-99.738c-30.657 3.112-50.844 52.812-45.088 111.008 5.755 58.196 35.273 102.851 65.93 99.738z" fill="url(#o)" fill-rule="evenodd"/></g><path clip-rule="evenodd" d="m487.638 781.265c30.657-3.112 50.843-52.812 45.088-111.008s-35.274-102.85-65.93-99.738c-30.657 3.112-50.844 52.812-45.088 111.008 5.755 58.196 35.273 102.851 65.93 99.738z" fill-rule="evenodd" stroke="#ac0000" stroke-width="2"/><g mask="url(#y)"><path clip-rule="evenodd" d="m498.811 784.752c16.213-.223 29.116-21.312 28.82-47.104-.295-25.792-13.679-46.519-29.892-46.297-16.213.223-29.116 21.312-28.821 47.104.296 25.792 13.68 46.52 29.893 46.297z" fill="url(#p)" fill-rule="evenodd"/></g><g filter="url(#i)"><path d="m424.587 561.301c1.094-3.317 4.482-5.306 7.912-4.645l81.508 15.716c4.613.889 7.47 5.544 6.175 10.06l-1.449 5.053c-1.217 4.247-5.648 6.703-9.895 5.485l-79.569-22.816c-3.79-1.087-5.917-5.108-4.682-8.853z" fill="#a50c0c"/></g><g filter="url(#j)"><path d="m584.546 582.976c-1.53-4.443 1.081-9.242 5.643-10.37l79.891-19.765c3.167-.784 6.454.737 7.907 3.657 1.873 3.765.008 8.318-3.967 9.687l-77.595 26.718c-4.178 1.438-8.73-.782-10.169-4.96z" fill="#a50c0c"/></g></g><path d="m497.4 901.881c-1.499-.136-6.199-.936-7.323-1.243-2.947-.816-6.421-2.416-9.197-4.22-5.143-3.335-9.674-8.526-13.046-14.941-.834-1.6-.868-1.736-.783-2.655.301-1.072.744-1.45 2.058-1.775 1.703-.102 2.254.339 3.054 1.921 2.674 5.361 7.051 10.279 11.547 13.036 4.292 2.638 8.299 4.35 15.98 4.724.971.034 2.618.261 3.163.703.866.703 1.758 1.406 1.547 3.003-.341.511-.801.936-1.295 1.191-.681.341-.987.375-2.895.341-1.175-.017-2.435-.051-2.81-.085z" fill="#a70000"/><path d="m521.09 889.236c-12.262-.901-19.926-3.301-28.288-8.815-4.684-3.114-9.486-8.781-12.467-14.754-5.552-11.112-7.085-27.364-4.377-46.713.46-3.403 2.282-13.648 2.436-13.818.051-.068 1.515.578 3.253 1.429 9.009 4.374 14.34 6.518 21.936 8.832 21.254 6.433 49.083 9.02 81.271 7.556 19.347-.885 34.999-2.45 59.83-5.973 5.041-.715 9.197-1.276 9.231-1.225.034.034-.494 2.093-1.209 4.577-1.55 5.429-2.146 7.999-2.793 11.811-1.993 11.861-1.414 23.109 1.89 37.081.46 1.957.817 3.574.8 3.591-.102.068-4.939 1.123-9.758 2.127-29.055 6.024-58.808 10.04-96.906 13.103-3.56.273-8.158.664-10.219.851-4.275.392-11.632.562-14.63.34z" fill="#e44a4a"/><path d="m518.722 884.362c-.339-.037-1.748-.202-3.122-.368-9.011-.994-17.041-4.16-22.359-8.799-2.23-1.933-4.764-4.75-6.031-6.646-1.177-1.785-3.427-5.838-3.338-5.912.071-.055 161.21-17.239 161.692-17.221.375 0 .384 2.847.384 4.688 0 3.829.732 10.364 1.766 15.776.286 1.473.482 2.706.447 2.743-.215.239-21.252 4.363-29.068 5.706-24.517 4.179-49.82 7.143-82.884 9.702-3.569.276-16.059.515-17.487.331z" fill="#eaeaea"/><path d="m481.626 856.271c-.928-3.59-1.767-8.394-2.159-12.297-.75-7.566-.143-19.991 1.445-29.361l.196-1.178.482.239c1.035.552 5.763 2.595 8.047 3.461 13.365 5.136 26.998 8.357 43.182 10.253 6.995.829 10.831 1.142 20.699 1.712 4.907.276 25.302.276 31.494-.018 15.078-.7 32.476-2.191 45.68-3.884 6.995-.902 12.508-1.657 15.149-2.044 1.356-.202 2.498-.331 2.534-.294.018.018-.232 1.399-.571 3.056-.874 4.27-1.32 7.381-1.552 10.879-.214 2.982-.214 3.037-.661 3.166-.249.074-36.936 3.921-81.545 8.523-44.61 4.602-81.35 8.413-81.653 8.468-.535.092-.571.055-.767-.681z" fill="#ebebeb"/><g fill="#fff"><path d="m495.637 869.883 3.314 8.744v.38l2.21 1.14 4.788 1.901 5.156 1.141 4.787.76 2.578.38h2.946l15.468-.38 17.677-1.521 19.151-1.9 18.414-2.281 20.255-3.042 17.309-3.041 18.414-3.802c-.368-1.647-1.178-5.475-1.473-7.604-.295-2.128-.614-5.702-.737-7.223z"/><path d="m490.113 840.989c.401 4.544 1.842 14.067 1.842 14.447l153.94-15.587 1.473-11.786c-6.751 1.141-43.088 5.475-51.927 6.083-8.838.609-55.241 0-63.712-.76-9.397-.844-30.935-3.675-40.879-5.323-.368 2.282-1.105 8.745-.737 12.926z"/></g></svg>