<svg fill="none" height="40" viewBox="0 0 40 40" width="40" xmlns="http://www.w3.org/2000/svg" xmlns:xlink="http://www.w3.org/1999/xlink"><clipPath id="a"><path d="m0 0h40v40h-40z"/></clipPath><g clip-path="url(#a)" clip-rule="evenodd" fill-rule="evenodd"><path d="m21.2117.78921 5.1335 10.89909c.1887.4117.5703.7022 1.0174.7745l11.479 1.7478c.519.1006.9405.4785 1.0971.9834.1565.5049.0227 1.0549-.3482 1.4315l-8.3063 8.4838c-.3208.3326-.4649.7974-.3886 1.2531l1.9608 11.9793c.107.515-.0913 1.0456-.5098 1.3642s-.9828.3685-1.4507.1283l-10.2671-5.6558c-.3912-.2169-.8664-.2169-1.2576 0l-10.26713 5.6558c-.46791.2402-1.03218.1903-1.45067-.1283-.4185-.3186-.6168-.8492-.50983-1.3642l1.96086-11.9793c.07629-.4557-.06787-.9205-.3886-1.2531l-8.306314-8.4838c-.370944-.3766-.5047295-.9266-.3481698-1.4315.1565598-.5049.5780928-.8827 1.0970138-.9834l11.47904-1.7478c.4471-.0723.8287-.3627 1.0174-.7745l5.1335-10.89909c.2121-.479743.6872-.78921 1.2117-.78921s.9996.309467 1.2117.78921z" fill="#f6ab27"/><path d="m11.8265 26.8079c.2171-1.3224-.2062-2.6694-1.1409-3.6297l-6.4992-6.6383 8.8665-1.3497c1.355-.2102 2.5162-1.0816 3.0967-2.3239l3.8504-8.17514 3.8489 8.17284c.5805 1.2432 1.7423 2.1156 3.0981 2.3262l8.8665 1.3496-6.5005 6.6397c-.9342.9608-1.357 2.3078-1.1395 3.6301l1.5066 9.2053-7.7203-4.2528c-1.2195-.6732-2.6992-.6735-3.919-.0006l-7.7209 4.2534z" fill="#f4cd1e"/></g></svg>