<svg fill="none" height="207" viewBox="0 0 480 207" width="480" xmlns="http://www.w3.org/2000/svg" xmlns:xlink="http://www.w3.org/1999/xlink"><filter id="a" color-interpolation-filters="sRGB" filterUnits="userSpaceOnUse" height="378.989" width="1298" x="-368" y="36.9882"><feFlood flood-opacity="0" result="BackgroundImageFix"/><feColorMatrix in="SourceAlpha" type="matrix" values="0 0 0 0 0 0 0 0 0 0 0 0 0 0 0 0 0 0 127 0"/><feOffset dy="-9"/><feGaussianBlur stdDeviation="12"/><feColorMatrix type="matrix" values="0 0 0 0 1 0 0 0 0 0.882596 0 0 0 0 0.233333 0 0 0 0.3 0"/><feBlend in2="BackgroundImageFix" mode="normal" result="effect1_dropShadow"/><feBlend in="SourceGraphic" in2="effect1_dropShadow" mode="normal" result="shape"/></filter><filter id="b" color-interpolation-filters="sRGB" filterUnits="userSpaceOnUse" height="196.981" width="1134" x="-218" y="134.996"><feFlood flood-opacity="0" result="BackgroundImageFix"/><feColorMatrix in="SourceAlpha" type="matrix" values="0 0 0 0 0 0 0 0 0 0 0 0 0 0 0 0 0 0 127 0"/><feOffset dy="-4"/><feGaussianBlur stdDeviation="7"/><feColorMatrix type="matrix" values="0 0 0 0 0 0 0 0 0 0 0 0 0 0 0 0 0 0 0.25 0"/><feBlend in2="BackgroundImageFix" mode="normal" result="effect1_dropShadow"/><feBlend in="SourceGraphic" in2="effect1_dropShadow" mode="normal" result="shape"/></filter><filter id="c" color-interpolation-filters="sRGB" filterUnits="userSpaceOnUse" height="209.085" width="1052.5" x="-186" y="168.893"><feFlood flood-opacity="0" result="BackgroundImageFix"/><feColorMatrix in="SourceAlpha" type="matrix" values="0 0 0 0 0 0 0 0 0 0 0 0 0 0 0 0 0 0 127 0"/><feOffset dy="-4"/><feGaussianBlur stdDeviation="7.5"/><feColorMatrix type="matrix" values="0 0 0 0 0 0 0 0 0 0 0 0 0 0 0 0 0 0 0.25 0"/><feBlend in2="BackgroundImageFix" mode="normal" result="effect1_dropShadow"/><feBlend in="SourceGraphic" in2="effect1_dropShadow" mode="normal" result="shape"/></filter><path d="m-158.711.116608c-114.551 2.713772-276.771 100.410392-290.289 100.410392v252.473h727.5 727.5v-320.318c-1.66-3.6184-9.676-10.7194-28.46-10.1767-23.479.6784-36.997-12.89046-165.777 43.4205-128.78 56.3112-313.056 113.9792-406.262 113.9792-93.205 0-174.001-48.999-255.425-94.3043-77.4058-43.0691-194.2374-88.19787-308.787-85.484092z" fill="#8483fc"/><g filter="url(#a)"><path d="m-94.6113 70.085c-98.4107 2.1329-237.7747 78.916-249.3887 78.916v251.977h625 625v-305.2984c-1.426-2.8439-8.313-8.4249-24.45-7.9983-20.171.5332-31.785-10.1312-142.42 34.1257-110.636 44.258-268.949 89.581-349.022 89.581-80.074 0-154.108-37.41-219.438-74.117-63.876-35.89-166.8705-69.3189-265.2813-67.186z" fill="#f4d324"/></g><g filter="url(#b)"><path d="m16.6592 153.073c-87.0739 1.887-210.3832 69.826-220.6592 69.826v99.079h1106v-146.259c-1.262-2.516-7.355-7.454-21.633-7.077-17.848.472-28.123-8.964-126.014 30.195-97.89 39.16-237.966 79.263-308.815 79.263s-132.038-36.122-194.158-65.58c-58.576-27.778-147.647-61.335-234.7208-59.447z" fill="#f3ba28"/></g><g filter="url(#c)"><path d="m33 187.978c-80.5 2-194.5 74-204 74v105h1022.5v-155c-1.167-2.667-6.8-7.9-20-7.5-16.5.5-26-9.5-116.5 32s-220 84-285.5 84-127.5-39.5-179.5-69.5c-54.227-31.285-136.5-65-217-63z" fill="#e88b27"/></g></svg>