<svg fill="none" height="230" viewBox="0 0 272 230" width="272" xmlns="http://www.w3.org/2000/svg"><g fill="#ffdc1d" stroke="#bb9e00" stroke-width="3"><path d="m177.231 104.693h36.077c4.295 0 7.947-1.502 10.954-4.509 3.005-3.0069 4.509-6.6573 4.509-10.9536v-5.1515c0-11.3821-4.027-21.0984-12.081-29.1523-8.053-8.051-17.771-12.0783-29.152-12.0783h-10.307c-2.791 0-5.206-1.0204-7.247-3.0597-2.04-2.0404-3.06-4.4554-3.06-7.2472v-20.6172c0-2.79127 1.021-5.2085 3.06-7.2489 2.04-2.03758 4.455-3.05976 7.247-3.05976h10.307c11.168 0 21.822 2.17635 31.97 6.52286 10.147 4.3493 18.923 10.2285 26.333 17.6382 7.409 7.4062 13.286 16.1833 17.635 26.3311 4.349 10.1467 6.523 20.804 6.523 31.9706v113.3817c0 8.595-3.005 15.892-9.017 21.907-6.014 6.012-13.317 9.017-21.906 9.017h-61.849c-8.589 0-15.889-3.005-21.903-9.017-6.012-6.015-9.019-13.312-9.019-21.907v-61.843c0-8.593 3.007-15.89 9.023-21.906 6.011-6.011 13.314-9.018 21.903-9.018z"/><path d="m11.0134 113.711c6.0112-6.011 13.3125-9.018 21.9034-9.018h36.0767c4.2929 0 7.9478-1.502 10.9494-4.509 3.0079-3.0069 4.5096-6.6573 4.5096-10.9536v-5.1515c0-11.3821-4.0272-21.0984-12.0771-29.1523-8.0505-8.051-17.7679-12.0783-29.1545-12.0783h-10.3047c-2.7918 0-5.2084-1.0204-7.2477-3.0597-2.0381-2.0404-3.062-4.4554-3.062-7.2472v-20.6172c0-2.79127 1.0233-5.2085 3.062-7.2489 2.0387-2.03758 4.4554-3.05976 7.2477-3.05976h10.3047c11.1739 0 21.8261 2.17635 31.9767 6.52286 10.145 4.3493 18.9187 10.2285 26.3284 17.6382 7.41 7.4062 13.29 16.1833 17.637 26.3311 4.348 10.1467 6.525 20.804 6.525 31.9706v113.3817c0 8.595-3.008 15.892-9.019 21.907-6.012 6.012-13.313 9.017-21.9034 9.017h-61.8454c-8.5909 0-15.8917-3.005-21.9029-9.017-6.01566-6.015-9.0173-13.312-9.0173-21.907v-61.843c-.00057-8.593 3.00164-15.89 9.0134-21.906z"/></g></svg>