<svg fill="none" height="176" viewBox="0 0 207 176" width="207" xmlns="http://www.w3.org/2000/svg"><g stroke="#51197d" stroke-opacity=".5" stroke-width="4"><path d="m134.316 79.8332h27.241c3.244 0 6.001-1.1342 8.272-3.4047 2.269-2.2705 3.404-5.0269 3.404-8.271v-3.8899c0-8.5946-3.04-15.9313-9.122-22.0127-6.081-6.0793-13.419-9.1203-22.012-9.1203h-7.783c-2.108 0-3.931-.7705-5.472-2.3103-1.541-1.5407-2.311-3.3643-2.311-5.4724v-15.56789c0-2.10767.771-3.93291 2.311-5.4736 1.54-1.53857 3.364-2.31041 5.472-2.31041h7.783c8.433 0 16.477 1.64335 24.14 4.92537 7.662 3.28413 14.289 7.72353 19.884 13.31853 5.594 5.5924 10.032 12.2199 13.316 19.8824 3.284 7.6617 4.925 15.709 4.925 24.1408v85.6139c0 6.49-2.269 12-6.808 16.542-4.541 4.539-10.056 6.809-16.541 6.809h-46.702c-6.486 0-11.998-2.27-16.539-6.809-4.54-4.542-6.81-10.052-6.81-16.542v-46.697c0-6.4888 2.27-11.9987 6.813-16.5414 4.539-4.5388 10.053-6.8094 16.539-6.8094z"/><path d="m8.80597 86.6426c4.53903-4.5388 10.05223-6.8094 16.53913-6.8094h27.2413c3.2415 0 6.0013-1.1342 8.2678-3.4047 2.2713-2.2705 3.4052-5.0269 3.4052-8.271v-3.8899c0-8.5946-3.0409-15.9313-9.1193-22.0127-6.0789-6.0793-13.4165-9.1203-22.0144-9.1203h-7.7811c-2.108 0-3.9328-.7705-5.4727-2.3103-1.5389-1.5407-2.3121-3.3643-2.3121-5.4724v-15.56789c0-2.10767.7727-3.93291 2.3121-5.4736 1.5395-1.53857 3.3643-2.31041 5.4727-2.31041h7.7811c8.4373 0 16.4807 1.64335 24.1454 4.92537 7.6604 3.28413 14.2854 7.72353 19.8804 13.31853 5.5953 5.5924 10.0352 12.2199 13.3176 19.8824 3.2831 7.6617 4.927 15.709 4.927 24.1408v85.6139c0 6.49-2.2713 12-6.8102 16.542-4.5396 4.539-10.0526 6.809-16.5391 6.809h-46.6991c-6.487 0-11.9998-2.27-16.53879-6.809-4.54239-4.542-6.80891-10.052-6.80891-16.542v-46.697c-.00043-6.4888 2.26652-11.9987 6.80597-16.5414z"/></g></svg>