<svg fill="none" height="176" viewBox="0 0 207 176" width="207" xmlns="http://www.w3.org/2000/svg"><g stroke="#51197d" stroke-opacity=".5" stroke-width="4"><path d="m72.0489 79.8332h-27.2418c-3.2432 0-6.0004-1.1342-8.2708-3.4047-2.2691-2.2705-3.4051-5.0269-3.4051-8.271v-3.8899c0-8.5946 3.0409-15.9313 9.1223-22.0127 6.081-6.0793 13.419-9.1203 22.0127-9.1203h7.7827c2.1076 0 3.9311-.7705 5.4726-2.3103 1.5396-1.5407 2.3098-3.3643 2.3098-5.4724v-15.56789c0-2.10767-.7702-3.93291-2.3098-5.4736-1.541-1.53857-3.3646-2.31041-5.4726-2.31041h-7.7827c-8.4327 0-16.4778 1.64335-24.1404 4.92537-7.6617 3.28413-14.2888 7.72353-19.8837 13.31853-5.5946 5.5924-10.0326 12.2199-13.31632 19.8824-3.28371 7.6617-4.92578 15.709-4.92578 24.1408v85.6139c0 6.49 2.26908 12 6.80936 16.542 4.54074 4.539 10.05524 6.809 16.54084 6.809h46.7017c6.4852 0 11.9981-2.27 16.5393-6.809 4.5388-4.542 6.8094-10.052 6.8094-16.542v-46.697c0-6.4888-2.2706-11.9987-6.8125-16.5414-4.5388-4.5388-10.054-6.8094-16.5392-6.8094z"/><path d="m197.559 86.6426c-4.539-4.5388-10.052-6.8094-16.539-6.8094h-27.241c-3.242 0-6.002-1.1342-8.269-3.4047-2.27-2.2705-3.404-5.0269-3.404-8.271v-3.8899c0-8.5946 3.04-15.9313 9.119-22.0127 6.079-6.0793 13.416-9.1203 22.015-9.1203h7.78c2.108 0 3.933-.7705 5.473-2.3103 1.539-1.5407 2.312-3.3643 2.312-5.4724v-15.56789c0-2.10767-.772-3.93291-2.312-5.4736-1.54-1.53857-3.364-2.31041-5.473-2.31041h-7.78c-8.438 0-16.482 1.64335-24.146 4.92537-7.66 3.28413-14.286 7.72353-19.88 13.31853-5.595 5.5924-10.035 12.2199-13.318 19.8824-3.283 7.6617-4.927 15.709-4.927 24.1408v85.6139c0 6.49 2.271 12 6.81 16.542 4.539 4.539 10.053 6.809 16.539 6.809h46.699c6.487 0 12-2.27 16.539-6.809 4.543-4.542 6.809-10.052 6.809-16.542v-46.697c0-6.4888-2.266-11.9987-6.806-16.5414z"/></g></svg>