<svg fill="none" height="230" viewBox="0 0 272 230" width="272" xmlns="http://www.w3.org/2000/svg"><g fill="#ffdc1d" stroke="#bb9e00" stroke-width="3"><path d="m94.7684 104.693h-36.0773c-4.2951 0-7.9466-1.502-10.9534-4.509-3.005-3.0069-4.5095-6.6573-4.5095-10.9536v-5.1515c0-11.3821 4.0272-21.0984 12.0811-29.1523 8.0532-8.051 17.7712-12.0783 29.1522-12.0783h10.3069c2.7912 0 5.2062-1.0204 7.2476-3.0597 2.039-2.0404 3.059-4.4554 3.059-7.2472v-20.6172c0-2.79127-1.02-5.2085-3.059-7.2489-2.0408-2.03758-4.4558-3.05976-7.2476-3.05976h-10.3069c-11.1678 0-21.8222 2.17635-31.97 6.52286-10.1467 4.3493-18.9232 10.2285-26.3328 17.6382-7.4091 7.4062-13.2865 16.1833-17.6353 26.3311-4.34874 10.1467-6.5234 20.804-6.5234 31.9706v113.3817c0 8.595 3.00503 15.892 9.0179 21.907 6.0135 6.012 13.3165 9.017 21.9057 9.017h61.8488c8.5886 0 15.8896-3.005 21.9036-9.017 6.011-6.015 9.018-13.312 9.018-21.907v-61.843c0-8.593-3.007-15.89-9.022-21.906-6.011-6.011-13.315-9.018-21.9036-9.018z"/><path d="m260.986 113.711c-6.011-6.011-13.312-9.018-21.903-9.018h-36.077c-4.293 0-7.948-1.502-10.95-4.509-3.007-3.0069-4.509-6.6573-4.509-10.9536v-5.1515c0-11.3821 4.027-21.0984 12.077-29.1523 8.051-8.051 17.768-12.0783 29.155-12.0783h10.304c2.792 0 5.209-1.0204 7.248-3.0597 2.038-2.0404 3.062-4.4554 3.062-7.2472v-20.6172c0-2.79127-1.023-5.2085-3.062-7.2489-2.039-2.03758-4.455-3.05976-7.248-3.05976h-10.304c-11.174 0-21.827 2.17635-31.977 6.52286-10.145 4.3493-18.919 10.2285-26.328 17.6382-7.41 7.4062-13.29 16.1833-17.637 26.3311-4.348 10.1467-6.526 20.804-6.526 31.9706v113.3817c0 8.595 3.008 15.892 9.019 21.907 6.012 6.012 13.314 9.017 21.904 9.017h61.845c8.591 0 15.892-3.005 21.903-9.017 6.016-6.015 9.017-13.312 9.017-21.907v-61.843c.001-8.593-3.001-15.89-9.013-21.906z"/></g></svg>