<svg fill="none" height="48" viewBox="0 0 48 48" width="48" xmlns="http://www.w3.org/2000/svg"><circle cx="24" cy="24" fill="#ffdcdc" r="22" stroke="#ff4545" stroke-width="4"/><path d="m16.3534 15.969c.092-.046.1916-.069.299-.069h1.817c.1533 0 .23.0767.23.23v15.64c0 .1533-.0767.23-.23.23h-1.748c-.1534 0-.23-.0767-.23-.23v-13.501c0-.0307-.0154-.0537-.046-.069-.0154-.0153-.0384-.0153-.069 0l-2.415.828c-.0307.0153-.069.023-.115.023-.092 0-.1457-.0613-.161-.184l-.092-1.311c0-.1533.046-.2453.138-.276zm10.6619 16.261c-1.5487 0-2.783-.437-3.703-1.311-.9047-.8893-1.357-2.0777-1.357-3.565v-6.808c0-1.4873.4523-2.668 1.357-3.542.92-.874 2.1543-1.311 3.703-1.311s2.783.437 3.703 1.311c.9353.874 1.403 2.0547 1.403 3.542v6.808c0 1.4873-.4677 2.6757-1.403 3.565-.92.874-2.1543 1.311-3.703 1.311zm0-1.909c.8893 0 1.5947-.253 2.116-.759.5213-.5213.782-1.2113.782-2.07v-7.038c0-.8587-.2607-1.541-.782-2.047-.5213-.5213-1.2267-.782-2.116-.782-.8587 0-1.5487.2607-2.07.782-.5213.506-.782 1.1883-.782 2.047v7.038c0 .8587.2607 1.5487.782 2.07.5213.506 1.2113.759 2.07.759z" fill="#9b0000"/></svg>