<svg fill="none" height="46" viewBox="0 0 46 46" width="46" xmlns="http://www.w3.org/2000/svg"><circle cx="23" cy="23" fill="#fff" r="21" stroke="#bebebe" stroke-width="4"/><path d="m16.2917 33c-.1945 0-.2917-.0952-.2917-.2857v-19.4286c0-.1905.0972-.2857.2917-.2857h7.0583c2.0222 0 3.6361.5238 4.8417 1.5714 1.2055 1.0286 1.8083 2.4096 1.8083 4.1429v8.5714c0 1.7333-.6028 3.1238-1.8083 4.1714-1.2056 1.0286-2.8195 1.5429-4.8417 1.5429zm2.5083-2.4857c0 .0762.0389.1143.1167.1143h4.55c1.1277 0 2.0222-.3334 2.6833-1 .6806-.6857 1.0306-1.6 1.05-2.7429v-7.7714c0-1.1429-.3403-2.0476-1.0208-2.7143-.6611-.6857-1.5653-1.0286-2.7125-1.0286h-4.55c-.0778 0-.1167.0381-.1167.1143z" fill="#656565"/></svg>