<svg fill="none" height="48" viewBox="0 0 48 48" width="48" xmlns="http://www.w3.org/2000/svg"><circle cx="24" cy="24" fill="#ffdcdc" r="22" stroke="#ff4545" stroke-width="4"/><path d="m28.2445 24.87c.1686.6747.253 1.3723.253 2.093s-.092 1.3877-.276 2.001c-.2914.9813-.851 1.7633-1.679 2.346-.8127.5673-1.7864.851-2.921.851-1.1194 0-2.0777-.276-2.875-.828-.7974-.552-1.357-1.3033-1.679-2.254-.1534-.4293-.2377-.805-.253-1.127v-.046c0-.1227.069-.184.207-.184h1.817c.138 0 .2146.069.23.207.0153.1073.0536.2683.115.483.1686.5673.46 1.0197.874 1.357.4293.322.943.483 1.541.483.6286 0 1.1576-.1687 1.587-.506.4446-.3527.7436-.8357.897-1.449.1073-.322.161-.7667.161-1.334 0-.506-.046-.9737-.138-1.403-.1074-.5827-.3834-1.0273-.828-1.334-.4294-.322-.966-.483-1.61-.483-.598 0-1.1347.138-1.61.414-.4754.2607-.782.6133-.92 1.058-.046.138-.1304.207-.253.207h-1.84c-.1534 0-.23-.0767-.23-.23v-9.062c0-.1533.0766-.23.23-.23h8.602c.1533 0 .23.0767.23.23v1.449c0 .1533-.0767.23-.23.23h-6.532c-.0614 0-.092.0307-.092.092l-.023 4.807c0 .092.0383.115.115.069.368-.322.7896-.5597 1.265-.713.4906-.1687 1.0043-.253 1.541-.253 1.0733 0 1.9933.2683 2.76.805.782.5367 1.3033 1.288 1.564 2.254z" fill="#9b0000"/></svg>